<?xml version="1.0" encoding="UTF-8" standalone="no"?>
<svg
   width="98"
   height="96"
   version="1.1"
   id="svg1"
   xml:space="preserve"
   xmlns="http://www.w3.org/2000/svg"
   xmlns:svg="http://www.w3.org/2000/svg"><defs
     id="defs1" /><path
     id="path2"
     style="fill:#ffffff;stroke-width:9.15574;stroke-linecap:round;stroke-linejoin:round;paint-order:stroke fill markers"
     d="M 49,0.90917922 A 48,48 0 0 0 0.99999995,48.909183 48,48 0 0 0 2.85937,62.041993 c 0.72474,-0.36347 1.46293,-0.69505 2.22852,-0.96094 2.03514,-0.70635 4.1984401,-0.93953 6.33984,-1.16797 6.73005,-0.71716 13.5313,-1.43572 20.25196,-0.6289 0.82707,0.09905 1.78532,0.20628 2.30078,-0.44727 1.08445,-1.37508 2.4892,-2.49669 4.07031,-3.25 0.4468,-0.21183 0.93072,-0.41349 1.21484,-0.81836 0.34047,-0.48581 0.30525,-1.13323 0.24805,-1.72461 -0.59427,-6.27674 -1.90727,-12.32727 -3.79492,-18.34375 0.60223,2.57664 0.78743,5.2884 0.19531,7.86719 -0.59211,2.57881 -2.01043,5.01903 -4.16992,6.54883 -0.18941,0.13448 -0.38887,0.26294 -0.60938,0.33594 -0.28556,0.094 -0.59326,0.08889 -0.89257,0.05859 -1.7004,-0.17566 -3.28796,-1.22489 -4.11719,-2.7207 -0.53066,-0.95864 -0.75148,-2.05132 -1.07031,-3.09961 -0.51042,-1.68159 -1.28681,-3.29918 -1.50586,-5.04297 -0.35644,-2.84198 0.79775,-5.63418 1.94726,-8.25781 0.55597,-1.27097 1.1409,-2.57202 2.13281,-3.54297 1.02659,-1.00347 2.41566,-1.57575 3.4336,-2.58789 0.68537,-0.68322 1.17732,-1.54004 1.85547,-2.23047 0.67886,-0.68971 1.38351,-1.08551 2.35156,-1.07031 2.25781,0.03539 4.25834,-1.327973 6.29492,-2.304693 2.34601,-1.12421 4.91852,-1.77605 7.51758,-1.90625 2.64024,-0.13079 5.31192,0.26917 7.91602,-0.18555 0.73379,-0.12798 1.16605,-0.15248 1.8789,-0.36719 1.28903,-0.38823 2.67717,0.15994 3.8086,0.88868 1.13215,0.72873 2.15604,1.65538 3.4082,2.14843 1.52979,0.60223 3.28442,0.51026 4.75781,1.23828 0.99769,0.492333 1.78591,1.321613 2.7207,1.923833 0.60222,0.38824 1.27035,0.68699 1.79883,1.16992 0.99623,0.90877 1.34546,2.34628 1.31446,3.69532 -0.0304,1.34831 -0.38524,2.66591 -0.57032,4.00195 -0.25954,1.87896 -0.182,3.79124 -0.41406,5.67383 -0.23208,1.88188 -0.82558,3.80937 -2.17969,5.13672 -0.38027,0.37233 -0.83646,0.69971 -1.36132,0.78711 -0.3651,0.06007 -0.73834,4.5e-4 -1.09766,-0.08985 -1.67727,-0.42294 -3.14408,-1.51026 -4.20899,-2.87304 -1.06564,-1.36278 -1.75567,-2.98816 -2.20898,-4.65821 -0.32245,0.94781 -0.43716,2.23942 -0.70898,3.20313 -1.07867,3.8288 -1.32937,7.8349 -1.57227,11.80468 -0.0955,1.55798 -0.19043,3.12027 -0.11523,4.67969 0.0694,1.46328 0.28971,2.91943 0.65625,4.33789 0.49523,1.92018 1.27,3.88546 2.08984,5.69141 0.99769,2.19924 1.90338,4.44215 2.71094,6.71875 0.44389,1.25289 0.85961,2.52507 1.02734,3.84375 0.21616,1.69391 0.0159,3.4089 -0.18359,5.10351 -0.1005,0.85528 -0.20322,1.71813 -0.49024,2.5293 -0.3658,1.03095 -1.01536,1.93417 -1.68554,2.798829 -0.81332,1.049759 -1.67044,2.067256 -2.56836,3.046875 0.30798,1.520389 -0.14916,3.125355 -0.875,4.496094 -0.29271,0.553597 -0.63165,1.079694 -0.98047,1.59961 A 48,48 0 0 0 97,48.909183 48,48 0 0 0 49,0.90917922 Z" /></svg>
